<svg fill="none" height="190" viewBox="0 0 190 190" width="190" xmlns="http://www.w3.org/2000/svg"><g fill="#3b4652"><path d="m161.427 52.4094c-1.069-.9588-2.691-.8482-3.65.1843-.959 1.0694-.848 2.6919.184 3.6507 3.946 3.54 6.085 8.4075 6.085 13.7175 0 4.5725-1.697 8.9975-4.794 12.39-.959 1.0693-.885 2.6918.184 3.6506.48.4425 1.106.6637 1.733.6637.701 0 1.402-.295 1.918-.8481 3.945-4.3512 6.121-9.9931 6.121-15.8562.037-6.785-2.766-13.0538-7.781-17.5525z"/><path d="m121.602 13.285c.996-.1475 2.029-.2581 3.024-.2581 8.961 0 16.778 6.6743 18.253 15.5243.222 1.2538 1.291 2.1757 2.545 2.1757.147 0 .295 0 .405-.0369 1.402-.2213 2.36-1.5488 2.139-2.95-1.844-11.3206-11.874-19.83875-23.342-19.83875-1.29 0-2.581.11062-3.872.33187-1.401.22125-2.36 1.54875-2.138 2.94998.258 1.4013 1.585 2.3231 2.986 2.1019z"/><path d="m40.5881 36h.1475c1.3644 0 2.5075-1.0694 2.5813-2.4337.59-9.735 8.7025-17.3682 18.4375-17.3682.3687 0 .7743 0 1.18.0369 1.4381.0738 2.655-.9956 2.7287-2.3969.0738-1.4381-.9956-2.655-2.3969-2.7287-.4793-.0369-.9956-.0369-1.475-.0369-12.5006 0-22.8625 9.7719-23.6 22.2356-.1106 1.4013.9957 2.6182 2.3969 2.6919z"/><path d="m32.4387 88.805c-3.9456-3.54-6.0843-8.4074-6.0843-13.7174 0-4.5725 1.6962-8.9976 4.7937-12.3901.9588-1.0693.885-2.6918-.1844-3.6506-1.0693-.9587-2.6918-.885-3.6506.1844-3.9456 4.3513-6.1212 9.9931-6.1212 15.8563 0 6.8218 2.7656 13.0537 7.8175 17.5893.4793.4425 1.1062.6638 1.7331.6638.7006 0 1.4012-.295 1.9175-.8482.9219-1.1062.8112-2.7287-.2213-3.6875z"/><path d="m108.881 130.363c3.503 0 6.932-1.991 8.481-5.494 1.696-3.798 5.715-5.974 9.845-5.384 3.135.479 6.085-.664 8.076-2.766 1.586-1.659 2.581-3.908 2.581-6.416 0-.074 0-.147 0-.258 0-.074 0-.148 0-.221 0-4.057 2.655-7.67 6.564-8.887 4.056-1.2539 6.564-4.9783 6.564-8.887 0-1.4381-.332-2.8763-1.033-4.2407-.7-1.3643-1.032-2.8024-1.032-4.2406 0-2.5075 1.032-5.015 2.95-6.8218 1.991-1.8438 2.95-4.3144 2.95-6.8219 0-2.8025-1.254-5.5682-3.688-7.4119-2.36-1.8069-3.687-4.5725-3.687-7.4119 0-1.1431.221-2.2862.627-3.3925.442-1.1062.627-2.2493.627-3.3925 0-4.2775-2.987-8.2231-7.449-9.1081-2.028-.4056-3.798-1.475-5.126-2.95-1.327-1.475-2.139-3.3925-2.323-5.4575-.369-4.9781-4.536-8.5919-9.256-8.5919-.774 0-1.548.1107-2.323.295-.774.1844-1.548.295-2.286.295-3.245 0-6.342-1.7331-8.039-4.6462-1.733-3.0238-4.867-4.6463-8.075-4.6463-2.102 0-4.204.7007-5.974 2.1757-1.7331 1.4381-3.835 2.1756-5.9738 2.1756-1.8068 0-3.6506-.5163-5.2362-1.6225-1.6225-1.1063-3.4294-1.6225-5.1994-1.6225-3.5031 0-6.9325 1.9912-8.4812 5.4944-1.5119 3.3556-4.8675 5.4943-8.4813 5.4943-.4425 0-.9219-.0368-1.3644-.1106-5.6418-.8481-10.6568 3.54-10.6568 9.1819v.2581.2212c0 4.0563-2.655 7.6701-6.5638 8.8869-4.0562 1.2538-6.5637 4.9781-6.5637 8.8869 0 1.4381.3318 2.8762 1.0325 4.2406.7006 1.3275 1.0325 2.8025 1.0325 4.2406 0 2.5075-1.0325 5.015-2.95 6.8219-1.9913 1.8438-2.95 4.3144-2.95 6.8219 0 2.8025 1.2537 5.5681 3.6875 7.4119 2.36 1.8068 3.6875 4.5725 3.6875 7.4119 0 1.1431-.2213 2.2862-.6269 3.3925-.4425 1.1062-.6269 2.2493-.6269 3.3925 0 4.2776 2.9869 8.2226 7.4488 9.1076 2.0281.406 3.7981 1.475 5.1256 2.95 1.2169 1.365 1.9912 3.061 2.2494 4.942.0368.184.0368.332.0368.516.3688 4.978 4.5357 8.592 9.2557 8.592.7743 0 1.5487-.111 2.3231-.295.7744-.185 1.5487-.295 2.2862-.295 3.245 0 6.3425 1.733 8.0388 4.646 1.7331 3.024 4.8675 4.646 8.0756 4.646 1.5119 0 3.0238-.368 4.425-1.143.5163-.295 1.0325-.627 1.5488-1.032 1.6225-1.328 3.5768-2.065 5.5681-2.176h.4056c1.8069 0 3.6509.516 5.2359 1.623 1.623 1.106 3.467 1.622 5.237 1.622zm-13.681-16.889c-22.6044 0-40.9313-18.3265-40.9313-40.9309s18.3269-40.9312 40.9313-40.9312c22.604 0 40.931 18.3268 40.931 40.9312s-18.327 40.9309-40.931 40.9309z"/></g><path d="m116.809 64.2093-10.915-1.3275c-1.217-.1475-2.287-.9218-2.803-2.0281l-4.646-9.9931c-1.2906-2.7656-5.1994-2.7656-6.4531 0l-4.6463 9.9931c-.5162 1.1063-1.5856 1.8806-2.8025 2.0281l-10.915 1.3275c-3.0237.3688-4.2037 4.0932-1.9912 6.1582l8.0756 7.4856c.885.8481 1.2906 2.1019 1.0694 3.2819l-2.1019 10.8043c-.59 2.9869 2.5812 5.2732 5.2362 3.7982l9.6244-5.3469c1.0694-.59 2.3969-.59 3.4663 0l9.6241 5.3469c2.655 1.475 5.826-.8113 5.236-3.7982l-2.101-10.8043c-.222-1.2169.184-2.4707 1.069-3.2819l8.076-7.4856c2.101-2.065.885-5.7894-2.102-6.1582z" fill="#f46262"/><path d="m73.96 129.441c-.7375-1.29-2.1019-2.065-3.5769-2.065-.3319 0-.6637.037-1.0325.148-1.1431.295-2.36.442-3.5769.442-5.2731 0-9.9562-2.913-12.5006-7.227l-20.5762 45.651 25.4068-9.772 9.4769 25.518 20.5763-45.541c-.5532.074-1.0694.111-1.6225.111-5.1994-.037-9.9932-2.803-12.5744-7.265z" fill="#f46262"/><path d="m128.609 124.758c-.701 0-1.438-.074-2.139-.147-.221-.037-.406-.037-.627-.037-1.622 0-3.097.959-3.761 2.434-2.323 5.162-7.523 8.518-13.201 8.518-2.914 0-5.716-.848-8.113-2.508-.037-.037-.111-.074-.147-.074l22.198 49.192 9.477-25.518 25.407 9.772-20.171-44.692c-2.507 1.954-5.678 3.06-8.923 3.06z" fill="#f46262"/></svg>